<svg width="512" height="512" viewBox="0 0 512 512" fill="none" xmlns="http://www.w3.org/2000/svg">
<rect width="512" height="512" fill="#F5F5F5"/>
<rect width="512" height="512" fill="white"/>
<path d="M236.841 160.909V350H214.682L111.642 201.534H109.795V350H86.8977V160.909H109.057L212.466 309.744H214.312V160.909H236.841ZM341.012 350H282.659V160.909H343.597C361.94 160.909 377.636 164.695 390.685 172.266C403.734 179.775 413.737 190.578 420.692 204.673C427.648 218.707 431.125 235.511 431.125 255.085C431.125 274.782 427.617 291.74 420.6 305.959C413.583 320.116 403.365 331.011 389.946 338.643C376.528 346.214 360.216 350 341.012 350ZM305.557 329.688H339.534C355.169 329.688 368.126 326.671 378.405 320.639C388.685 314.607 396.348 306.02 401.395 294.879C406.443 283.738 408.966 270.473 408.966 255.085C408.966 239.82 406.473 226.679 401.488 215.661C396.502 204.581 389.054 196.087 379.144 190.178C369.234 184.207 356.892 181.222 342.12 181.222H305.557V329.688Z" fill="#0F172A"/>
</svg>
